<mxfile host="Electron" agent="Mozilla/5.0 (Windows NT 10.0; Win64; x64) AppleWebKit/537.36 (KHTML, like Gecko) draw.io/28.0.6 Chrome/138.0.7204.100 Electron/37.2.3 Safari/537.36" version="28.0.6">
  <diagram name="Page-1" id="gkFlkEZloiWq769RidI6">
    <mxGraphModel dx="2065" dy="875" grid="0" gridSize="10" guides="1" tooltips="1" connect="1" arrows="1" fold="1" page="0" pageScale="1" pageWidth="850" pageHeight="1100" math="0" shadow="0">
      <root>
        <mxCell id="0" />
        <mxCell id="1" parent="0" />
        <mxCell id="mbnQoqLQZj8MsQBt3kUC-11" value="" style="group" vertex="1" connectable="0" parent="1">
          <mxGeometry x="290" y="280" width="600" height="280" as="geometry" />
        </mxCell>
        <mxCell id="mbnQoqLQZj8MsQBt3kUC-1" value="&lt;p style=&quot;margin:0px;margin-top:4px;text-align:center;&quot;&gt;&lt;i&gt;&amp;lt;&amp;lt;Interface&amp;gt;&amp;gt;&lt;/i&gt;&lt;br&gt;&lt;b&gt;States&lt;/b&gt;&lt;/p&gt;&lt;hr size=&quot;1&quot; style=&quot;border-style:solid;&quot;&gt;&lt;p style=&quot;margin:0px;margin-left:4px;&quot;&gt;&lt;/p&gt;&lt;p style=&quot;margin:0px;margin-left:4px;&quot;&gt;+ InsertCashButton(Type): Type&lt;br&gt;+ SelectProductButton(Type, Type): Type&lt;/p&gt;&lt;p style=&quot;margin:0px;margin-left:4px;&quot;&gt;+ Cancel/RefundButton()&lt;/p&gt;&lt;p style=&quot;margin:0px;margin-left:4px;&quot;&gt;+ DispenseProduct()&lt;/p&gt;" style="verticalAlign=top;align=left;overflow=fill;html=1;whiteSpace=wrap;" vertex="1" parent="mbnQoqLQZj8MsQBt3kUC-11">
          <mxGeometry x="160" width="240" height="120" as="geometry" />
        </mxCell>
        <mxCell id="mbnQoqLQZj8MsQBt3kUC-2" value="&lt;p style=&quot;margin:0px;margin-top:4px;text-align:center;&quot;&gt;&lt;b&gt;IdleState&lt;/b&gt;&lt;/p&gt;&lt;hr size=&quot;1&quot; style=&quot;border-style:solid;&quot;&gt;&lt;p style=&quot;margin:0px;margin-left:4px;&quot;&gt;+ field: Type&lt;/p&gt;&lt;hr size=&quot;1&quot; style=&quot;border-style:solid;&quot;&gt;&lt;p style=&quot;margin:0px;margin-left:4px;&quot;&gt;+ method(): Type&lt;/p&gt;" style="verticalAlign=top;align=left;overflow=fill;html=1;whiteSpace=wrap;" vertex="1" parent="mbnQoqLQZj8MsQBt3kUC-11">
          <mxGeometry y="200" width="120" height="80" as="geometry" />
        </mxCell>
        <mxCell id="mbnQoqLQZj8MsQBt3kUC-3" value="&lt;p style=&quot;margin:0px;margin-top:4px;text-align:center;&quot;&gt;&lt;b&gt;HasMoneyState&lt;/b&gt;&lt;/p&gt;&lt;hr size=&quot;1&quot; style=&quot;border-style:solid;&quot;&gt;&lt;p style=&quot;margin:0px;margin-left:4px;&quot;&gt;+ field: Type&lt;/p&gt;&lt;hr size=&quot;1&quot; style=&quot;border-style:solid;&quot;&gt;&lt;p style=&quot;margin:0px;margin-left:4px;&quot;&gt;+ method(): Type&lt;/p&gt;" style="verticalAlign=top;align=left;overflow=fill;html=1;whiteSpace=wrap;" vertex="1" parent="mbnQoqLQZj8MsQBt3kUC-11">
          <mxGeometry x="150" y="200" width="120" height="80" as="geometry" />
        </mxCell>
        <mxCell id="mbnQoqLQZj8MsQBt3kUC-4" value="&lt;p style=&quot;margin:0px;margin-top:4px;text-align:center;&quot;&gt;&lt;b&gt;ProductSelectionState&lt;/b&gt;&lt;/p&gt;&lt;hr size=&quot;1&quot; style=&quot;border-style:solid;&quot;&gt;&lt;p style=&quot;margin:0px;margin-left:4px;&quot;&gt;+ field: Type&lt;/p&gt;&lt;hr size=&quot;1&quot; style=&quot;border-style:solid;&quot;&gt;&lt;p style=&quot;margin:0px;margin-left:4px;&quot;&gt;+ method(): Type&lt;/p&gt;" style="verticalAlign=top;align=left;overflow=fill;html=1;whiteSpace=wrap;" vertex="1" parent="mbnQoqLQZj8MsQBt3kUC-11">
          <mxGeometry x="300" y="200" width="160" height="80" as="geometry" />
        </mxCell>
        <mxCell id="mbnQoqLQZj8MsQBt3kUC-5" value="&lt;p style=&quot;margin:0px;margin-top:4px;text-align:center;&quot;&gt;&lt;b&gt;DispensingState&lt;/b&gt;&lt;/p&gt;&lt;hr size=&quot;1&quot; style=&quot;border-style:solid;&quot;&gt;&lt;p style=&quot;margin:0px;margin-left:4px;&quot;&gt;+ field: Type&lt;/p&gt;&lt;hr size=&quot;1&quot; style=&quot;border-style:solid;&quot;&gt;&lt;p style=&quot;margin:0px;margin-left:4px;&quot;&gt;+ method(): Type&lt;/p&gt;" style="verticalAlign=top;align=left;overflow=fill;html=1;whiteSpace=wrap;" vertex="1" parent="mbnQoqLQZj8MsQBt3kUC-11">
          <mxGeometry x="490" y="200" width="110" height="80" as="geometry" />
        </mxCell>
        <mxCell id="mbnQoqLQZj8MsQBt3kUC-7" value="Extends" style="endArrow=block;endSize=16;endFill=0;html=1;rounded=0;exitX=0.544;exitY=-0.011;exitDx=0;exitDy=0;exitPerimeter=0;entryX=0.129;entryY=1.025;entryDx=0;entryDy=0;entryPerimeter=0;" edge="1" parent="mbnQoqLQZj8MsQBt3kUC-11" source="mbnQoqLQZj8MsQBt3kUC-2" target="mbnQoqLQZj8MsQBt3kUC-1">
          <mxGeometry width="160" relative="1" as="geometry">
            <mxPoint x="-50" y="150" as="sourcePoint" />
            <mxPoint x="110" y="150" as="targetPoint" />
          </mxGeometry>
        </mxCell>
        <mxCell id="mbnQoqLQZj8MsQBt3kUC-8" value="Extends" style="endArrow=block;endSize=16;endFill=0;html=1;rounded=0;exitX=0.5;exitY=0;exitDx=0;exitDy=0;entryX=0.35;entryY=1.017;entryDx=0;entryDy=0;entryPerimeter=0;" edge="1" parent="mbnQoqLQZj8MsQBt3kUC-11" source="mbnQoqLQZj8MsQBt3kUC-3" target="mbnQoqLQZj8MsQBt3kUC-1">
          <mxGeometry width="160" relative="1" as="geometry">
            <mxPoint x="200" y="320" as="sourcePoint" />
            <mxPoint x="360" y="320" as="targetPoint" />
          </mxGeometry>
        </mxCell>
        <mxCell id="mbnQoqLQZj8MsQBt3kUC-9" value="Extends" style="endArrow=block;endSize=16;endFill=0;html=1;rounded=0;exitX=0.5;exitY=0;exitDx=0;exitDy=0;entryX=0.663;entryY=0.983;entryDx=0;entryDy=0;entryPerimeter=0;" edge="1" parent="mbnQoqLQZj8MsQBt3kUC-11" source="mbnQoqLQZj8MsQBt3kUC-4" target="mbnQoqLQZj8MsQBt3kUC-1">
          <mxGeometry width="160" relative="1" as="geometry">
            <mxPoint x="330" y="400" as="sourcePoint" />
            <mxPoint x="490" y="400" as="targetPoint" />
          </mxGeometry>
        </mxCell>
        <mxCell id="mbnQoqLQZj8MsQBt3kUC-10" value="Extends" style="endArrow=block;endSize=16;endFill=0;html=1;rounded=0;exitX=0.463;exitY=-0.022;exitDx=0;exitDy=0;exitPerimeter=0;entryX=0.888;entryY=1.017;entryDx=0;entryDy=0;entryPerimeter=0;" edge="1" parent="mbnQoqLQZj8MsQBt3kUC-11" source="mbnQoqLQZj8MsQBt3kUC-5" target="mbnQoqLQZj8MsQBt3kUC-1">
          <mxGeometry width="160" relative="1" as="geometry">
            <mxPoint x="680" y="230" as="sourcePoint" />
            <mxPoint x="840" y="230" as="targetPoint" />
          </mxGeometry>
        </mxCell>
        <mxCell id="mbnQoqLQZj8MsQBt3kUC-12" value="&lt;p style=&quot;margin:0px;margin-top:4px;text-align:center;&quot;&gt;&lt;b&gt;VendingMachine&lt;/b&gt;&lt;/p&gt;&lt;hr size=&quot;1&quot; style=&quot;border-style:solid;&quot;&gt;&lt;p style=&quot;margin:0px;margin-left:4px;&quot;&gt;+ VMStates: States&lt;/p&gt;&lt;p style=&quot;margin:0px;margin-left:4px;&quot;&gt;+ inventoryObj&lt;/p&gt;&lt;hr size=&quot;1&quot; style=&quot;border-style:solid;&quot;&gt;&lt;p style=&quot;margin:0px;margin-left:4px;&quot;&gt;+ method(): Type&lt;/p&gt;" style="verticalAlign=top;align=left;overflow=fill;html=1;whiteSpace=wrap;" vertex="1" parent="1">
          <mxGeometry x="40" y="320" width="200" height="90" as="geometry" />
        </mxCell>
        <mxCell id="mbnQoqLQZj8MsQBt3kUC-13" value="Use" style="endArrow=open;endSize=12;dashed=1;html=1;rounded=0;" edge="1" parent="1">
          <mxGeometry width="160" relative="1" as="geometry">
            <mxPoint x="238" y="360" as="sourcePoint" />
            <mxPoint x="450" y="360" as="targetPoint" />
          </mxGeometry>
        </mxCell>
        <mxCell id="mbnQoqLQZj8MsQBt3kUC-14" value="&lt;p style=&quot;margin:0px;margin-top:4px;text-align:center;&quot;&gt;&lt;b&gt;Inventory&lt;/b&gt;&lt;/p&gt;&lt;hr size=&quot;1&quot; style=&quot;border-style:solid;&quot;&gt;&lt;p style=&quot;margin:0px;margin-left:4px;&quot;&gt;+ itemShelf [ ]&lt;/p&gt;&lt;hr size=&quot;1&quot; style=&quot;border-style:solid;&quot;&gt;&lt;p style=&quot;margin:0px;margin-left:4px;&quot;&gt;+ method(): Type&lt;/p&gt;" style="verticalAlign=top;align=left;overflow=fill;html=1;whiteSpace=wrap;" vertex="1" parent="1">
          <mxGeometry x="-240" y="320" width="120" height="90" as="geometry" />
        </mxCell>
        <mxCell id="mbnQoqLQZj8MsQBt3kUC-15" value="Use" style="endArrow=open;endSize=12;dashed=1;html=1;rounded=0;exitX=0;exitY=0.5;exitDx=0;exitDy=0;entryX=1;entryY=0.5;entryDx=0;entryDy=0;" edge="1" parent="1" source="mbnQoqLQZj8MsQBt3kUC-12" target="mbnQoqLQZj8MsQBt3kUC-14">
          <mxGeometry width="160" relative="1" as="geometry">
            <mxPoint x="-110" y="460" as="sourcePoint" />
            <mxPoint x="50" y="460" as="targetPoint" />
          </mxGeometry>
        </mxCell>
        <mxCell id="mbnQoqLQZj8MsQBt3kUC-16" value="&lt;p style=&quot;margin:0px;margin-top:4px;text-align:center;&quot;&gt;&lt;b&gt;ItemShelf&lt;/b&gt;&lt;/p&gt;&lt;hr size=&quot;1&quot; style=&quot;border-style:solid;&quot;&gt;&lt;p style=&quot;margin:0px;margin-left:4px;&quot;&gt;+ itemObj&lt;/p&gt;&lt;hr size=&quot;1&quot; style=&quot;border-style:solid;&quot;&gt;&lt;p style=&quot;margin:0px;margin-left:4px;&quot;&gt;+ method(): Type&lt;/p&gt;" style="verticalAlign=top;align=left;overflow=fill;html=1;whiteSpace=wrap;" vertex="1" parent="1">
          <mxGeometry x="-240" y="480" width="120" height="90" as="geometry" />
        </mxCell>
        <mxCell id="mbnQoqLQZj8MsQBt3kUC-17" value="&lt;p style=&quot;margin:0px;margin-top:4px;text-align:center;&quot;&gt;&lt;b&gt;Item&lt;/b&gt;&lt;/p&gt;&lt;hr size=&quot;1&quot; style=&quot;border-style:solid;&quot;&gt;&lt;p style=&quot;margin:0px;margin-left:4px;&quot;&gt;+ ItemTypeObj: Type&lt;/p&gt;&lt;hr size=&quot;1&quot; style=&quot;border-style:solid;&quot;&gt;&lt;p style=&quot;margin:0px;margin-left:4px;&quot;&gt;+ method(): Type&lt;/p&gt;" style="verticalAlign=top;align=left;overflow=fill;html=1;whiteSpace=wrap;" vertex="1" parent="1">
          <mxGeometry x="-240" y="640" width="120" height="90" as="geometry" />
        </mxCell>
        <mxCell id="mbnQoqLQZj8MsQBt3kUC-18" value="Enum ItemType" style="swimlane;fontStyle=0;childLayout=stackLayout;horizontal=1;startSize=26;fillColor=none;horizontalStack=0;resizeParent=1;resizeParentMax=0;resizeLast=0;collapsible=1;marginBottom=0;whiteSpace=wrap;html=1;" vertex="1" parent="1">
          <mxGeometry x="-80" y="640" width="110" height="104" as="geometry" />
        </mxCell>
        <mxCell id="mbnQoqLQZj8MsQBt3kUC-19" value="+ Coke" style="text;strokeColor=none;fillColor=none;align=left;verticalAlign=top;spacingLeft=4;spacingRight=4;overflow=hidden;rotatable=0;points=[[0,0.5],[1,0.5]];portConstraint=eastwest;whiteSpace=wrap;html=1;" vertex="1" parent="mbnQoqLQZj8MsQBt3kUC-18">
          <mxGeometry y="26" width="110" height="26" as="geometry" />
        </mxCell>
        <mxCell id="mbnQoqLQZj8MsQBt3kUC-20" value="+ Pepsi" style="text;strokeColor=none;fillColor=none;align=left;verticalAlign=top;spacingLeft=4;spacingRight=4;overflow=hidden;rotatable=0;points=[[0,0.5],[1,0.5]];portConstraint=eastwest;whiteSpace=wrap;html=1;" vertex="1" parent="mbnQoqLQZj8MsQBt3kUC-18">
          <mxGeometry y="52" width="110" height="26" as="geometry" />
        </mxCell>
        <mxCell id="mbnQoqLQZj8MsQBt3kUC-21" value="+ Water" style="text;strokeColor=none;fillColor=none;align=left;verticalAlign=top;spacingLeft=4;spacingRight=4;overflow=hidden;rotatable=0;points=[[0,0.5],[1,0.5]];portConstraint=eastwest;whiteSpace=wrap;html=1;" vertex="1" parent="mbnQoqLQZj8MsQBt3kUC-18">
          <mxGeometry y="78" width="110" height="26" as="geometry" />
        </mxCell>
        <mxCell id="mbnQoqLQZj8MsQBt3kUC-22" value="Use" style="endArrow=open;endSize=12;dashed=1;html=1;rounded=0;entryX=0.5;entryY=0;entryDx=0;entryDy=0;exitX=0.5;exitY=1;exitDx=0;exitDy=0;" edge="1" parent="1" source="mbnQoqLQZj8MsQBt3kUC-16" target="mbnQoqLQZj8MsQBt3kUC-17">
          <mxGeometry width="160" relative="1" as="geometry">
            <mxPoint x="-100" y="580" as="sourcePoint" />
            <mxPoint x="60" y="580" as="targetPoint" />
          </mxGeometry>
        </mxCell>
        <mxCell id="mbnQoqLQZj8MsQBt3kUC-24" value="Use" style="endArrow=open;endSize=12;dashed=1;html=1;rounded=0;exitX=0.5;exitY=1;exitDx=0;exitDy=0;entryX=0.5;entryY=0;entryDx=0;entryDy=0;" edge="1" parent="1" source="mbnQoqLQZj8MsQBt3kUC-14" target="mbnQoqLQZj8MsQBt3kUC-16">
          <mxGeometry width="160" relative="1" as="geometry">
            <mxPoint x="-140" y="490" as="sourcePoint" />
            <mxPoint x="20" y="490" as="targetPoint" />
          </mxGeometry>
        </mxCell>
      </root>
    </mxGraphModel>
  </diagram>
</mxfile>
